# xmcd CD database file
#
# Track frame offsets:
#	150
#	5622
#	32462
#	50975
#	69290
#	92150
#
# Disc length: 1371 seconds
#
# Revision: 0
# Processed by: cddbd v1.5.1PL2 Copyright (c) Steve Scherf et al.
# Submitted via: CDex 1.51
#
DISCID=47055906
DTITLE=nil - アガペー
DYEAR=2005
DGENRE=Japanese Rock
TTITLE0=SHORT HORP
TTITLE1=REASONS
TTITLE2=ONE DAY
TTITLE3=アガペー
TTITLE4=陽の当たる場所
TTITLE5=LONG HORP
EXTD=YEAR: 2005
EXTT0=
EXTT1=
EXTT2=
EXTT3=
EXTT4=
EXTT5=
PLAYORDER=
